<mxfile host="app.diagrams.net" agent="Mozilla/5.0 (Windows NT 10.0; Win64; x64; rv:144.0) Gecko/20100101 Firefox/144.0" version="28.2.8">
  <diagram name="Page-1" id="e7e014a7-5840-1c2e-5031-d8a46d1fe8dd">
    <mxGraphModel dx="1678" dy="882" grid="1" gridSize="10" guides="1" tooltips="1" connect="1" arrows="1" fold="1" page="1" pageScale="1" pageWidth="1169" pageHeight="826" background="none" math="0" shadow="0">
      <root>
        <mxCell id="0" />
        <mxCell id="1" parent="0" />
        <mxCell id="2" value="Spieler" style="swimlane;whiteSpace=wrap;fontSize=30;startSize=40;" parent="1" vertex="1">
          <mxGeometry x="164.5" y="120" width="275.5" height="910" as="geometry" />
        </mxCell>
        <mxCell id="5" value="" style="ellipse;shape=startState;fillColor=#000000;strokeColor=light-dark(#000000,#00FF00);" parent="2" vertex="1">
          <mxGeometry x="100" y="50" width="30" height="30" as="geometry" />
        </mxCell>
        <mxCell id="6" value="" style="edgeStyle=elbowEdgeStyle;elbow=horizontal;verticalAlign=bottom;endArrow=open;endSize=8;strokeColor=light-dark(#FF0000,#FFFFFF);endFill=1;rounded=0" parent="2" source="5" target="7" edge="1">
          <mxGeometry x="100" y="40" as="geometry">
            <mxPoint x="115" y="110" as="targetPoint" />
          </mxGeometry>
        </mxCell>
        <mxCell id="7" value="Match starten" style="" parent="2" vertex="1">
          <mxGeometry x="60" y="110" width="110" height="50" as="geometry" />
        </mxCell>
        <mxCell id="mrhSsw-HXRqoP1EwAHoS-45" value="Spielzug ausführen" style="" parent="2" vertex="1">
          <mxGeometry x="55.5" y="278" width="114.5" height="30" as="geometry" />
        </mxCell>
        <mxCell id="4" value="Alle Clients" style="swimlane;whiteSpace=wrap;glass=0;rounded=0;fontSize=30;startSize=40;" parent="1" vertex="1">
          <mxGeometry x="720" y="120" width="285" height="910" as="geometry" />
        </mxCell>
        <mxCell id="mrhSsw-HXRqoP1EwAHoS-43" value="Neuen Spielzustand anzeigen" style="" parent="4" vertex="1">
          <mxGeometry x="55.25" y="160" width="169.5" height="50" as="geometry" />
        </mxCell>
        <mxCell id="xF-1HSMd7KZlOlbt2HDl-31" style="edgeStyle=orthogonalEdgeStyle;rounded=0;orthogonalLoop=1;jettySize=auto;html=1;entryX=0.5;entryY=0;entryDx=0;entryDy=0;" edge="1" parent="4" source="xF-1HSMd7KZlOlbt2HDl-22" target="xF-1HSMd7KZlOlbt2HDl-29">
          <mxGeometry relative="1" as="geometry" />
        </mxCell>
        <mxCell id="xF-1HSMd7KZlOlbt2HDl-22" value="Endbildschirm anzeigen" style="" vertex="1" parent="4">
          <mxGeometry x="63.870000000000005" y="800" width="157.25" height="30" as="geometry" />
        </mxCell>
        <mxCell id="xF-1HSMd7KZlOlbt2HDl-29" value="" style="ellipse;html=1;shape=endState;fillColor=#000000;strokeColor=light-dark(#FF0000,#00FF00);" vertex="1" parent="4">
          <mxGeometry x="127.5" y="860" width="30" height="30" as="geometry" />
        </mxCell>
        <mxCell id="9" value="" style="endArrow=open;endFill=1;rounded=0;entryX=0;entryY=0.5;entryDx=0;entryDy=0;exitX=0.5;exitY=1;exitDx=0;exitDy=0;edgeStyle=orthogonalEdgeStyle;" parent="1" source="7" target="15" edge="1">
          <mxGeometry relative="1" as="geometry">
            <mxPoint x="279.5" y="348" as="targetPoint" />
          </mxGeometry>
        </mxCell>
        <mxCell id="mrhSsw-HXRqoP1EwAHoS-42" style="edgeStyle=orthogonalEdgeStyle;rounded=0;orthogonalLoop=1;jettySize=auto;html=1;entryX=1;entryY=0.5;entryDx=0;entryDy=0;exitX=0.5;exitY=1;exitDx=0;exitDy=0;" parent="1" source="15" target="mrhSsw-HXRqoP1EwAHoS-45" edge="1">
          <mxGeometry relative="1" as="geometry">
            <mxPoint x="582.71" y="390" as="sourcePoint" />
            <mxPoint x="497.71" y="460" as="targetPoint" />
          </mxGeometry>
        </mxCell>
        <mxCell id="3" value="Backend" style="swimlane;whiteSpace=wrap;fontSize=30;startSize=40;" parent="1" vertex="1">
          <mxGeometry x="440" y="120" width="280" height="910" as="geometry" />
        </mxCell>
        <mxCell id="mrhSsw-HXRqoP1EwAHoS-86" style="edgeStyle=orthogonalEdgeStyle;rounded=0;orthogonalLoop=1;jettySize=auto;html=1;entryX=0;entryY=0.5;entryDx=0;entryDy=0;" parent="3" source="15" target="mrhSsw-HXRqoP1EwAHoS-83" edge="1">
          <mxGeometry relative="1" as="geometry" />
        </mxCell>
        <mxCell id="15" value="Einem Spieler das Zugrecht geben&#xa;(dem Nächsten in der Reihe)" style="" parent="3" vertex="1">
          <mxGeometry x="42.75" y="160" width="194.5" height="50" as="geometry" />
        </mxCell>
        <mxCell id="xF-1HSMd7KZlOlbt2HDl-33" style="edgeStyle=orthogonalEdgeStyle;rounded=0;orthogonalLoop=1;jettySize=auto;html=1;entryX=0.5;entryY=0;entryDx=0;entryDy=0;" edge="1" parent="3" source="mrhSsw-HXRqoP1EwAHoS-48" target="mrhSsw-HXRqoP1EwAHoS-60">
          <mxGeometry relative="1" as="geometry">
            <mxPoint x="200.46000000000026" y="462" as="targetPoint" />
          </mxGeometry>
        </mxCell>
        <mxCell id="xF-1HSMd7KZlOlbt2HDl-34" value="ja" style="edgeLabel;html=1;align=center;verticalAlign=middle;resizable=0;points=[];" vertex="1" connectable="0" parent="xF-1HSMd7KZlOlbt2HDl-33">
          <mxGeometry x="-0.3439" y="1" relative="1" as="geometry">
            <mxPoint x="-11" y="-7" as="offset" />
          </mxGeometry>
        </mxCell>
        <mxCell id="mrhSsw-HXRqoP1EwAHoS-48" value="&lt;span style=&quot;color: light-dark(rgb(0, 0, 0), rgb(0, 255, 0));&quot;&gt;Hat der Spieler das Zugrecht und&amp;nbsp;&lt;/span&gt;&lt;span style=&quot;color: light-dark(rgb(0, 0, 0), rgb(0, 255, 0));&quot;&gt;ist der Zug valide?&lt;/span&gt;" style="rhombus;whiteSpace=wrap;html=1;" parent="3" vertex="1">
          <mxGeometry x="141.44" y="350" width="98" height="82" as="geometry" />
        </mxCell>
        <mxCell id="mrhSsw-HXRqoP1EwAHoS-56" value="Fehlernachricht&#xa;zurücksenden" style="" parent="3" vertex="1">
          <mxGeometry y="442" width="110" height="42" as="geometry" />
        </mxCell>
        <mxCell id="mrhSsw-HXRqoP1EwAHoS-52" style="edgeStyle=orthogonalEdgeStyle;rounded=0;orthogonalLoop=1;jettySize=auto;html=1;entryX=0.5;entryY=0;entryDx=0;entryDy=0;exitX=0;exitY=0.5;exitDx=0;exitDy=0;" parent="3" source="mrhSsw-HXRqoP1EwAHoS-48" target="mrhSsw-HXRqoP1EwAHoS-56" edge="1">
          <mxGeometry relative="1" as="geometry" />
        </mxCell>
        <mxCell id="mrhSsw-HXRqoP1EwAHoS-54" value="&lt;div&gt;nein&lt;/div&gt;" style="edgeLabel;html=1;align=center;verticalAlign=middle;resizable=0;points=[];" parent="mrhSsw-HXRqoP1EwAHoS-52" vertex="1" connectable="0">
          <mxGeometry x="-0.5567" y="4" relative="1" as="geometry">
            <mxPoint x="26" y="-13" as="offset" />
          </mxGeometry>
        </mxCell>
        <mxCell id="mrhSsw-HXRqoP1EwAHoS-70" style="edgeStyle=orthogonalEdgeStyle;rounded=0;orthogonalLoop=1;jettySize=auto;html=1;entryX=0.5;entryY=0;entryDx=0;entryDy=0;" parent="3" source="mrhSsw-HXRqoP1EwAHoS-60" target="mrhSsw-HXRqoP1EwAHoS-64" edge="1">
          <mxGeometry relative="1" as="geometry" />
        </mxCell>
        <mxCell id="mrhSsw-HXRqoP1EwAHoS-60" value="Spielzug umsetzen&#xa;und Spielmechaniken&#xa;anwenden" style="" parent="3" vertex="1">
          <mxGeometry x="128.19" y="510" width="124.54" height="44" as="geometry" />
        </mxCell>
        <mxCell id="mrhSsw-HXRqoP1EwAHoS-72" style="edgeStyle=orthogonalEdgeStyle;rounded=0;orthogonalLoop=1;jettySize=auto;html=1;entryX=0.5;entryY=0;entryDx=0;entryDy=0;exitX=1;exitY=0.5;exitDx=0;exitDy=0;" parent="3" source="mrhSsw-HXRqoP1EwAHoS-77" target="15" edge="1">
          <mxGeometry relative="1" as="geometry">
            <Array as="points">
              <mxPoint x="236" y="740" />
              <mxPoint x="515" y="740" />
              <mxPoint x="515" y="140" />
              <mxPoint x="140" y="140" />
            </Array>
          </mxGeometry>
        </mxCell>
        <mxCell id="mrhSsw-HXRqoP1EwAHoS-73" value="nein" style="edgeLabel;html=1;align=center;verticalAlign=middle;resizable=0;points=[];" parent="mrhSsw-HXRqoP1EwAHoS-72" vertex="1" connectable="0">
          <mxGeometry x="-0.9486" y="-1" relative="1" as="geometry">
            <mxPoint x="-25" y="-10" as="offset" />
          </mxGeometry>
        </mxCell>
        <mxCell id="mrhSsw-HXRqoP1EwAHoS-78" style="edgeStyle=orthogonalEdgeStyle;rounded=0;orthogonalLoop=1;jettySize=auto;html=1;entryX=0.5;entryY=0;entryDx=0;entryDy=0;" parent="3" source="mrhSsw-HXRqoP1EwAHoS-64" target="mrhSsw-HXRqoP1EwAHoS-77" edge="1">
          <mxGeometry relative="1" as="geometry" />
        </mxCell>
        <mxCell id="mrhSsw-HXRqoP1EwAHoS-79" value="ja" style="edgeLabel;html=1;align=center;verticalAlign=middle;resizable=0;points=[];" parent="mrhSsw-HXRqoP1EwAHoS-78" vertex="1" connectable="0">
          <mxGeometry x="-0.1717" relative="1" as="geometry">
            <mxPoint x="5" y="-7" as="offset" />
          </mxGeometry>
        </mxCell>
        <mxCell id="mrhSsw-HXRqoP1EwAHoS-64" value="&lt;span style=&quot;&quot;&gt;Hat &lt;/span&gt;&lt;span style=&quot;&quot;&gt;&lt;span style=&quot;&quot;&gt;der&lt;/span&gt;&lt;/span&gt;&lt;span style=&quot;&quot;&gt; Spieler seinen Spielzug beendet?&lt;/span&gt;" style="rhombus;whiteSpace=wrap;html=1;fontColor=light-dark(#000000,#00FF00);" parent="3" vertex="1">
          <mxGeometry x="131.06000000000003" y="570" width="118.77" height="98" as="geometry" />
        </mxCell>
        <mxCell id="xF-1HSMd7KZlOlbt2HDl-25" style="edgeStyle=orthogonalEdgeStyle;rounded=0;orthogonalLoop=1;jettySize=auto;html=1;entryX=0.5;entryY=0;entryDx=0;entryDy=0;" edge="1" parent="3" source="mrhSsw-HXRqoP1EwAHoS-77" target="xF-1HSMd7KZlOlbt2HDl-20">
          <mxGeometry relative="1" as="geometry" />
        </mxCell>
        <mxCell id="xF-1HSMd7KZlOlbt2HDl-32" value="ja" style="edgeLabel;html=1;align=center;verticalAlign=middle;resizable=0;points=[];" vertex="1" connectable="0" parent="xF-1HSMd7KZlOlbt2HDl-25">
          <mxGeometry x="-0.2759" y="1" relative="1" as="geometry">
            <mxPoint x="-11" y="-8" as="offset" />
          </mxGeometry>
        </mxCell>
        <mxCell id="mrhSsw-HXRqoP1EwAHoS-77" value="&lt;span style=&quot;&quot;&gt;Hat ein Spieler&lt;br&gt;genug Siegespunkte erreicht?&lt;/span&gt;" style="rhombus;whiteSpace=wrap;html=1;fontColor=light-dark(#000000,#00FF00);" parent="3" vertex="1">
          <mxGeometry x="145.46000000000004" y="700" width="90" height="78" as="geometry" />
        </mxCell>
        <mxCell id="mrhSsw-HXRqoP1EwAHoS-84" style="edgeStyle=orthogonalEdgeStyle;rounded=0;orthogonalLoop=1;jettySize=auto;html=1;entryX=0.75;entryY=1;entryDx=0;entryDy=0;" parent="3" source="mrhSsw-HXRqoP1EwAHoS-83" target="15" edge="1">
          <mxGeometry relative="1" as="geometry" />
        </mxCell>
        <mxCell id="mrhSsw-HXRqoP1EwAHoS-85" value="[nach(60s)]" style="edgeLabel;html=1;align=center;verticalAlign=middle;resizable=0;points=[];" parent="mrhSsw-HXRqoP1EwAHoS-84" vertex="1" connectable="0">
          <mxGeometry x="-0.3906" y="1" relative="1" as="geometry">
            <mxPoint x="1" y="-5" as="offset" />
          </mxGeometry>
        </mxCell>
        <mxCell id="mrhSsw-HXRqoP1EwAHoS-83" value="&lt;div&gt;&lt;span style=&quot;color: light-dark(rgb(0, 0, 0), rgb(0, 255, 0));&quot;&gt;Timer&lt;/span&gt;&lt;/div&gt;&lt;div&gt;&lt;span style=&quot;color: light-dark(rgb(0, 0, 0), rgb(0, 255, 0));&quot;&gt;starten&lt;/span&gt;&lt;/div&gt;" style="shape=collate;html=1;" parent="3" vertex="1">
          <mxGeometry x="170" y="256" width="37.25" height="37" as="geometry" />
        </mxCell>
        <mxCell id="xF-1HSMd7KZlOlbt2HDl-20" value="Match beenden" style="" vertex="1" parent="3">
          <mxGeometry x="123.07" y="800" width="134.75" height="30" as="geometry" />
        </mxCell>
        <mxCell id="mrhSsw-HXRqoP1EwAHoS-46" style="edgeStyle=orthogonalEdgeStyle;rounded=0;orthogonalLoop=1;jettySize=auto;html=1;entryX=0;entryY=0.5;entryDx=0;entryDy=0;" parent="1" source="15" target="mrhSsw-HXRqoP1EwAHoS-43" edge="1">
          <mxGeometry relative="1" as="geometry" />
        </mxCell>
        <mxCell id="mrhSsw-HXRqoP1EwAHoS-50" style="edgeStyle=orthogonalEdgeStyle;rounded=0;orthogonalLoop=1;jettySize=auto;html=1;entryX=0.5;entryY=0;entryDx=0;entryDy=0;exitX=0.5;exitY=1;exitDx=0;exitDy=0;" parent="1" source="mrhSsw-HXRqoP1EwAHoS-45" target="mrhSsw-HXRqoP1EwAHoS-48" edge="1">
          <mxGeometry relative="1" as="geometry" />
        </mxCell>
        <mxCell id="mrhSsw-HXRqoP1EwAHoS-59" style="edgeStyle=orthogonalEdgeStyle;rounded=0;orthogonalLoop=1;jettySize=auto;html=1;entryX=0;entryY=0.5;entryDx=0;entryDy=0;" parent="1" source="mrhSsw-HXRqoP1EwAHoS-56" target="mrhSsw-HXRqoP1EwAHoS-45" edge="1">
          <mxGeometry relative="1" as="geometry" />
        </mxCell>
        <mxCell id="mrhSsw-HXRqoP1EwAHoS-63" style="edgeStyle=orthogonalEdgeStyle;rounded=0;orthogonalLoop=1;jettySize=auto;html=1;entryX=0.5;entryY=1;entryDx=0;entryDy=0;" parent="1" source="mrhSsw-HXRqoP1EwAHoS-60" target="mrhSsw-HXRqoP1EwAHoS-43" edge="1">
          <mxGeometry relative="1" as="geometry">
            <mxPoint x="857.71" y="390" as="targetPoint" />
          </mxGeometry>
        </mxCell>
        <mxCell id="mrhSsw-HXRqoP1EwAHoS-74" style="edgeStyle=orthogonalEdgeStyle;rounded=0;orthogonalLoop=1;jettySize=auto;html=1;entryX=0;entryY=0.5;entryDx=0;entryDy=0;" parent="1" source="mrhSsw-HXRqoP1EwAHoS-64" target="mrhSsw-HXRqoP1EwAHoS-45" edge="1">
          <mxGeometry relative="1" as="geometry" />
        </mxCell>
        <mxCell id="mrhSsw-HXRqoP1EwAHoS-75" value="nein" style="edgeLabel;html=1;align=center;verticalAlign=middle;resizable=0;points=[];" parent="mrhSsw-HXRqoP1EwAHoS-74" vertex="1" connectable="0">
          <mxGeometry x="-0.9603" y="-2" relative="1" as="geometry">
            <mxPoint y="-7" as="offset" />
          </mxGeometry>
        </mxCell>
        <mxCell id="xF-1HSMd7KZlOlbt2HDl-26" style="edgeStyle=orthogonalEdgeStyle;rounded=0;orthogonalLoop=1;jettySize=auto;html=1;entryX=0;entryY=0.5;entryDx=0;entryDy=0;" edge="1" parent="1" source="xF-1HSMd7KZlOlbt2HDl-20" target="xF-1HSMd7KZlOlbt2HDl-22">
          <mxGeometry relative="1" as="geometry" />
        </mxCell>
      </root>
    </mxGraphModel>
  </diagram>
</mxfile>
